<svg height="144" width="144.083" xmlns="http://www.w3.org/2000/svg"><path d="M74.905 72.815a119.893 119.893 0 00-2.597-5.528c-12.261 4.011-24.067 4.457-28.51 4.465-.001.083-.006.165-.006.248 0 6.88 2.499 13.185 6.631 18.064 3.178-4.286 11.067-13.093 24.482-17.249zm-5.486-10.956c-5.064-8.986-9.662-14.654-9.755-14.768l.882-.726c-7.999 3.522-14.044 10.679-16.039 19.369 4.39-.077 14.471-.647 24.912-3.875zm5.775-2.07c5.273-2.174 10.384-5.136 14.643-9.174C84.959 46.493 78.663 44 71.791 44c-2.184 0-4.308.26-6.349.735 1.864 2.438 5.71 7.758 9.752 15.054zM80.86 71.36c5.521-.981 11.817-1.14 18.914-.038a27.838 27.838 0 00-5.787-16.362c-4.725 4.49-10.285 7.782-15.98 10.198.972 1.968 1.93 4.041 2.853 6.202z"/><path d="M72.04 14.166C40.1 14.166 14.207 40.06 14.207 72c0 31.94 25.893 57.834 57.833 57.834 31.941 0 57.835-25.895 57.835-57.834 0-31.94-25.894-57.834-57.835-57.834zM71.791 106c-18.748 0-34-15.252-34-34s15.252-34 34-34 34 15.252 34 34-15.252 34-34 34z"/><path d="M82.157 97.887c-.877-6.867-2.715-13.466-4.98-19.505-13.055 3.833-20.155 12.626-22.386 15.847a27.858 27.858 0 0017 5.771 27.85 27.85 0 0010.8-2.168l-.434.055zm.965-20.805c2.021 5.559 3.695 11.575 4.673 17.875 5.856-4.096 10.079-10.367 11.483-17.637-6.04-.978-11.413-.944-16.156-.238z"/></svg>