<svg viewBox="0 0 512 512" xmlns="http://www.w3.org/2000/svg"><path d="M236.3 335.8c-1.9 7.7-3.6 14.5-5.3 21.3-1.9 7.8-3.7 15.6-5.5 23.4-2.2 9.5-3.9 19.1-6.7 28.3-4 13.1-8 26.2-13.4 38.7-5 11.5-11.6 22.4-17.9 33.3-5.2 8.9-11.1 17.5-16.9 26.1-.9 1.3-3.4 2.6-4.5 2.2-1.4-.5-3-2.7-3.2-4.3-3.8-30.3-5.8-60.8-1.8-91.2 1.6-12.3 4.9-24.3 7.4-36.5 1.6-8 3.2-16.1 4.9-24.2 2.1-9.9 4.3-19.9 6.5-29.8 3.2-14.6 6.5-29.1 9.8-43.7 2.7-11.7 5.3-23.5 8.2-35.2 1.4-5.6-1.5-10.2-2.8-15.2-4.3-17.2-7-34.3-3.8-52.2 2.3-12.9 5.7-25.2 13-36.1 9.5-14.2 22.3-23.5 40.4-22.5 15.5.9 26.3 11 30.3 25.3 4.5 15.8 2.5 31.6-1.6 47.2-4.4 17-9.1 33.8-13.4 50.8-2.7 10.6-6.6 21.2-7.2 32-.9 16.1 5.4 30.2 19.5 39.3 11.2 7.2 23.1 8.6 36.3 5.4 17.5-4.3 29.6-15.2 39.8-29 12.1-16.3 18.9-34.8 24.2-54.3 6.5-24.2 9-48.6 8.5-73.5-.4-23-6.5-44.3-19.5-63.3-9.8-14.2-22.7-24.8-38.7-31.8-10.2-4.5-20.3-8.4-31.5-8.9-12.1-.5-24.3-2.6-36.2-1.4-35.9 3.9-65.6 19.7-88 48.5-8.9 11.5-16 24-20.7 37.5-7.2 20.8-10.4 42.4-8.3 64.5 1.5 15.5 6 30.4 16.2 42.4 7 8.2 5.7 16.2 3.3 25-1.3 4.6-2.5 9.2-3.5 13.9-1.7 8.4-6.4 12.7-16.1 8-19.4-9.4-31.7-24.9-40.3-44.1-12-26.9-14.1-55.3-11.3-83.9 3.3-32.4 15.8-61.7 35-88 13.9-19 31.2-34.4 51.4-46.5 15.8-9.5 32.6-16.2 50.4-20.8 23.1-6 46.5-7.8 70-5.9 17.6 1.4 34.6 5.6 51.1 12.4 28.5 11.8 51.8 29.9 70 54.6 10.8 14.7 19.1 30.8 24.5 48.4 3.2 10.4 5.9 20.8 6.2 31.7.4 12.3 1.8 24.6 1.1 36.7-.7 12.9-3.3 25.8-5.3 38.6-3.3 21.2-10.4 41.2-19.9 60.3-8.2 16.4-18.5 31.3-31.8 44.2-13.4 13-28.8 22.7-46.4 29.1-16.7 6.1-33.8 8.3-51.2 6.2-20.7-2.6-38.2-11.9-51.3-28.7-.9-1-2.3-2.4-4-4.3z"/></svg>