<?xml version="1.0" ?><!DOCTYPE svg  PUBLIC '-//W3C//DTD SVG 1.1//EN'  'http://www.w3.org/Graphics/SVG/1.1/DTD/svg11.dtd'><svg enable-background="new 0 0 144.083 144" height="144px" id="Dribbble" version="1.1" viewBox="0 0 144.083 144" width="144.083px" xml:space="preserve" xmlns="http://www.w3.org/2000/svg" xmlns:xlink="http://www.w3.org/1999/xlink"><path d="M74.905,72.815c-0.844-1.922-1.715-3.769-2.597-5.528c-12.261,4.011-24.067,4.457-28.51,4.465  c-0.001,0.083-0.006,0.165-0.006,0.248c0,6.88,2.499,13.185,6.631,18.064C53.601,85.778,61.49,76.971,74.905,72.815z"/><path d="M69.419,61.859c-5.064-8.986-9.662-14.654-9.755-14.768l0.882-0.726c-7.999,3.522-14.044,10.679-16.039,19.369  C48.897,65.657,58.978,65.087,69.419,61.859z"/><path d="M75.194,59.789c5.273-2.174,10.384-5.136,14.643-9.174C84.959,46.493,78.663,44,71.791,44c-2.184,0-4.308,0.26-6.349,0.735  C67.306,47.173,71.152,52.493,75.194,59.789z"/><path d="M80.86,71.36c5.521-0.981,11.817-1.14,18.914-0.038c-0.147-6.146-2.28-11.806-5.787-16.362  c-4.725,4.49-10.285,7.782-15.98,10.198C78.979,67.126,79.937,69.199,80.86,71.36z"/><path d="M72.04,14.166C40.1,14.166,14.207,40.06,14.207,72c0,31.94,25.893,57.834,57.833,57.834  c31.941,0,57.835-25.895,57.835-57.834C129.875,40.06,103.981,14.166,72.04,14.166z M71.791,106c-18.748,0-34-15.252-34-34  s15.252-34,34-34s34,15.252,34,34S90.539,106,71.791,106z"/><path d="M82.157,97.887c-0.877-6.867-2.715-13.466-4.98-19.505c-13.055,3.833-20.155,12.626-22.386,15.847  c4.717,3.615,10.61,5.771,17,5.771c3.827,0,7.475-0.773,10.8-2.168L82.157,97.887z"/><path d="M83.122,77.082c2.021,5.559,3.695,11.575,4.673,17.875c5.856-4.096,10.079-10.367,11.483-17.637  C93.238,76.342,87.865,76.376,83.122,77.082z"/></svg>